<?xml version="1.0" standalone="no"?>
<!DOCTYPE svg PUBLIC "-//W3C//DTD SVG 20010904//EN"
 "http://www.w3.org/TR/2001/REC-SVG-20010904/DTD/svg10.dtd">
<svg version="1.0" xmlns="http://www.w3.org/2000/svg"
 width="673.000000pt" height="673.000000pt" viewBox="0 0 673.000000 673.000000"
 preserveAspectRatio="xMidYMid meet">
<metadata>
Created by potrace 1.14, written by Peter Selinger 2001-2017
</metadata>
<g transform="translate(0.000000,673.000000) scale(0.100000,-0.100000)"
fill="#000000" stroke="none">
<path d="M4612 5933 c-31 -131 -52 -220 -56 -243 -3 -14 -10 -43 -15 -65 -5
-22 -12 -51 -14 -65 -3 -14 -15 -63 -26 -110 -12 -47 -24 -96 -26 -110 -5 -26
-8 -37 -26 -110 -6 -25 -13 -54 -15 -65 -8 -41 -14 -65 -63 -278 -28 -121 -53
-229 -56 -240 -5 -25 -53 -230 -91 -392 -14 -60 -28 -121 -30 -135 -3 -14 -14
-61 -24 -105 -11 -44 -33 -141 -50 -215 -17 -74 -37 -162 -45 -195 -8 -33 -21
-91 -30 -130 -9 -38 -19 -79 -21 -90 -3 -11 -7 -31 -10 -45 -3 -14 -7 -33 -10
-42 -3 -9 -7 -25 -9 -35 -2 -10 -13 -58 -24 -108 -12 -49 -24 -101 -26 -115
-3 -14 -12 -52 -20 -85 -13 -53 -70 -298 -81 -350 -3 -11 -7 -31 -10 -45 -3
-14 -16 -72 -30 -130 -14 -58 -28 -116 -30 -130 -5 -26 -41 -178 -75 -320 -12
-47 -23 -96 -26 -110 -2 -13 -13 -63 -24 -110 -11 -47 -22 -92 -24 -100 -2 -8
-18 -78 -35 -155 -18 -77 -33 -144 -34 -150 -1 -5 -5 -19 -9 -30 -3 -11 -8
-31 -11 -45 -5 -30 -32 -151 -52 -235 -8 -33 -16 -71 -19 -85 -3 -14 -15 -62
-25 -106 -11 -45 -20 -85 -20 -88 0 -3 131 -5 292 -4 l292 3 8 30 c4 16 10 41
12 55 2 14 19 86 36 160 18 74 39 162 46 195 8 33 16 69 19 80 6 27 15 66 19
90 2 11 9 38 15 60 6 22 12 49 14 60 2 11 7 31 10 45 6 21 62 263 72 310 2 8
18 76 35 150 17 74 33 143 35 153 2 9 20 88 40 175 21 86 39 165 41 175 2 10
6 28 10 39 3 11 7 30 9 41 2 12 20 92 39 177 20 85 39 168 42 184 3 16 7 32 9
36 2 3 6 17 9 31 2 13 9 44 16 69 6 25 13 58 16 75 3 16 28 124 56 240 27 115
51 219 53 230 1 11 5 27 9 35 3 8 7 27 10 41 6 37 94 417 105 457 5 18 10 35
10 37 0 3 5 31 12 63 6 31 13 64 14 72 2 8 4 15 5 15 2 0 7 20 15 60 3 17 18
77 31 135 14 58 27 116 30 130 2 14 6 34 9 45 2 11 5 23 5 27 1 4 6 22 11 40
8 27 40 169 54 238 2 8 4 15 5 15 2 0 4 10 13 55 3 14 13 57 22 95 18 77 23
95 31 139 2 16 7 32 9 36 2 4 7 21 10 38 3 18 19 89 36 159 17 71 32 137 33
149 2 11 5 25 9 30 3 5 8 29 12 54 4 25 8 48 11 51 2 4 10 37 18 73 l14 66
-292 0 -292 0 -12 -47z"/>
<path d="M4 5626 c-2 -6 -3 -888 -2 -1961 l3 -1950 630 1 c646 0 772 4 920 29
17 2 47 7 69 11 75 11 226 49 271 67 17 6 32 12 35 13 3 0 12 3 20 7 8 3 38
13 65 23 28 10 60 24 72 32 12 7 28 15 35 16 39 6 253 140 337 211 94 80 258
264 274 308 4 9 11 17 17 17 5 0 10 4 10 9 0 4 22 46 48 92 26 46 55 100 64
119 36 77 57 130 51 130 -3 0 -1 6 4 13 20 24 74 213 88 304 2 12 6 34 9 50
10 45 20 123 32 243 8 80 8 492 0 578 -19 205 -66 425 -122 572 -24 62 -110
243 -137 285 -78 127 -200 271 -302 358 -109 93 -137 113 -167 123 -10 4 -18
10 -18 14 0 26 -412 198 -520 217 -14 2 -42 9 -63 14 -56 15 -193 39 -257 45
-30 3 -71 7 -90 10 -72 12 -1372 11 -1376 0z m1210 -721 c107 -9 133 -14 233
-40 157 -41 284 -104 378 -186 57 -50 183 -215 190 -249 0 -3 8 -21 17 -40 48
-99 91 -262 104 -388 24 -234 20 -485 -10 -687 -22 -144 -66 -280 -128 -395
-52 -97 -79 -132 -153 -205 -86 -84 -110 -102 -185 -140 -204 -104 -389 -140
-705 -136 l-70 1 2 1227 c0 676 1 1233 2 1238 1 11 205 12 325 0z"/>
<path d="M5839 5631 c-1 -3 -3 -885 -3 -1958 -1 -1346 1 -1953 9 -1956 5 -2
204 -3 440 -2 l430 0 3 1961 2 1961 -440 -1 c-242 0 -441 -2 -441 -5z"/>
</g>
</svg>
